<svg id="svg" version="1.1" xmlns="http://www.w3.org/2000/svg" xmlns:xlink="http://www.w3.org/1999/xlink" width="400" height="158.1818181818182" viewBox="0, 0, 400,158.1818181818182"><g id="svgg"><path id="path0" d="M0.000 79.083 L 0.000 158.167 200.000 158.167 L 400.000 158.167 400.000 79.083 L 400.000 0.000 200.000 0.000 L 0.000 0.000 0.000 79.083 M46.912 13.375 C 46.972 13.856,47.126 14.850,47.254 15.583 C 47.382 16.317,47.607 17.742,47.754 18.750 C 47.901 19.758,48.087 20.958,48.168 21.417 C 48.249 21.875,48.431 23.000,48.574 23.917 C 49.873 32.264,50.143 33.979,50.344 35.167 C 50.429 35.671,50.612 36.833,50.750 37.750 C 50.888 38.667,51.117 40.129,51.260 41.000 C 51.533 42.672,51.671 43.551,52.085 46.250 C 52.225 47.167,52.448 48.554,52.579 49.333 C 52.711 50.112,52.939 51.575,53.086 52.583 C 53.234 53.592,53.420 54.792,53.501 55.250 C 53.582 55.708,53.769 56.871,53.917 57.833 C 54.064 58.796,54.251 59.958,54.332 60.417 C 54.413 60.875,54.600 62.075,54.747 63.083 C 54.894 64.092,55.123 65.554,55.254 66.333 C 55.490 67.733,55.843 69.982,56.181 72.250 C 56.277 72.892,56.461 74.017,56.590 74.750 C 56.720 75.483,56.954 76.943,57.111 77.994 L 57.396 79.904 57.606 78.577 C 57.722 77.847,57.931 76.575,58.071 75.750 C 58.211 74.925,58.517 73.050,58.751 71.583 C 58.986 70.117,59.289 68.242,59.425 67.417 C 60.220 62.595,60.371 61.656,60.494 60.750 C 60.568 60.200,60.711 59.300,60.812 58.750 C 60.913 58.200,61.187 56.550,61.420 55.083 C 61.653 53.617,61.955 51.742,62.091 50.917 C 62.887 46.095,63.038 45.156,63.160 44.250 C 63.235 43.700,63.377 42.800,63.478 42.250 C 63.578 41.700,63.850 40.050,64.082 38.583 C 64.314 37.117,64.615 35.242,64.752 34.417 C 64.889 33.592,65.190 31.717,65.421 30.250 C 65.652 28.783,65.950 26.946,66.083 26.167 C 66.217 25.387,66.516 23.550,66.749 22.083 C 66.981 20.617,67.278 18.779,67.408 18.000 C 67.860 15.294,68.027 14.245,68.140 13.417 L 68.254 12.583 83.627 12.541 L 99.000 12.498 99.027 72.207 C 99.041 105.048,99.079 131.654,99.111 131.333 C 99.142 131.012,99.275 130.112,99.407 129.333 C 99.538 128.554,99.723 127.392,99.819 126.750 C 100.015 125.438,100.376 123.065,100.757 120.583 C 100.898 119.667,101.083 118.467,101.167 117.917 C 101.252 117.367,101.439 116.092,101.585 115.083 C 101.730 114.075,101.954 112.612,102.083 111.833 C 102.213 111.054,102.437 109.592,102.583 108.583 C 102.728 107.575,102.918 106.300,103.004 105.750 C 103.147 104.841,103.282 103.959,103.817 100.417 C 103.914 99.775,104.107 98.500,104.246 97.583 C 104.385 96.667,104.611 95.167,104.748 94.250 C 104.885 93.333,105.112 91.833,105.252 90.917 C 105.392 90.000,105.586 88.725,105.683 88.083 C 105.780 87.442,105.965 86.242,106.094 85.417 C 106.223 84.592,106.445 83.129,106.588 82.167 C 106.921 79.927,107.092 78.795,107.395 76.833 C 107.530 75.962,107.720 74.725,107.817 74.083 C 107.914 73.442,108.108 72.167,108.248 71.250 C 108.388 70.333,108.615 68.833,108.752 67.917 C 108.889 67.000,109.115 65.500,109.254 64.583 C 109.393 63.667,109.585 62.392,109.681 61.750 C 109.777 61.108,109.959 59.946,110.086 59.167 C 110.212 58.387,110.399 57.150,110.501 56.417 C 110.782 54.399,111.156 51.913,111.417 50.333 C 111.546 49.554,111.770 48.092,111.915 47.083 C 112.191 45.167,112.322 44.293,112.729 41.667 C 112.864 40.796,113.053 39.558,113.150 38.917 C 113.554 36.244,113.846 34.325,114.078 32.833 C 114.214 31.962,114.440 30.462,114.581 29.500 C 114.990 26.715,115.173 25.514,115.417 24.000 C 115.654 22.530,115.805 21.517,116.253 18.417 C 116.398 17.408,116.626 15.983,116.759 15.250 C 116.892 14.517,117.001 13.692,117.003 13.417 C 117.004 13.142,117.065 12.823,117.138 12.707 C 117.243 12.542,120.578 12.507,133.256 12.541 L 149.240 12.583 149.460 14.000 C 149.581 14.779,149.785 16.092,149.913 16.917 C 150.042 17.742,150.224 18.942,150.320 19.583 C 150.526 20.976,150.909 23.487,151.246 25.667 C 151.697 28.583,151.997 30.573,152.175 31.833 C 152.272 32.521,152.455 33.721,152.582 34.500 C 152.708 35.279,152.890 36.442,152.986 37.083 C 153.081 37.725,153.273 39.000,153.413 39.917 C 153.552 40.833,153.778 42.333,153.915 43.250 C 154.052 44.167,154.278 45.667,154.419 46.583 C 154.559 47.500,154.752 48.775,154.848 49.417 C 154.943 50.058,155.125 51.221,155.252 52.000 C 155.379 52.779,155.566 54.017,155.667 54.750 C 155.876 56.260,156.214 58.505,156.583 60.833 C 156.873 62.657,157.265 65.231,157.511 66.917 C 157.604 67.558,157.790 68.796,157.924 69.667 C 158.232 71.667,158.623 74.242,158.848 75.750 C 158.944 76.392,159.132 77.629,159.267 78.500 C 159.402 79.371,159.581 80.533,159.666 81.083 C 159.751 81.633,159.939 82.908,160.085 83.917 C 160.230 84.925,160.453 86.388,160.580 87.167 C 160.815 88.603,160.943 89.453,161.420 92.750 C 161.566 93.758,161.789 95.221,161.915 96.000 C 162.042 96.779,162.223 97.942,162.319 98.583 C 162.415 99.225,162.607 100.500,162.746 101.417 C 162.885 102.333,163.111 103.833,163.248 104.750 C 163.385 105.667,163.612 107.167,163.752 108.083 C 163.892 109.000,164.086 110.275,164.183 110.917 C 164.280 111.558,164.470 112.796,164.605 113.667 C 165.011 116.293,165.142 117.167,165.418 119.083 C 165.563 120.092,165.787 121.554,165.917 122.333 C 166.046 123.112,166.272 124.575,166.419 125.583 C 166.566 126.592,166.710 127.529,166.740 127.667 C 166.770 127.804,166.803 101.945,166.814 70.201 L 166.833 12.486 181.292 12.542 C 191.676 12.582,196.055 12.654,196.833 12.799 C 197.429 12.910,198.367 13.080,198.917 13.177 C 209.626 15.070,218.836 21.659,225.019 31.854 L 225.865 33.250 225.761 32.417 C 225.704 31.958,225.509 30.383,225.328 28.917 C 225.146 27.450,224.884 25.387,224.746 24.333 C 224.485 22.344,224.373 21.449,223.913 17.667 C 223.763 16.429,223.545 14.799,223.430 14.043 C 223.314 13.288,223.257 12.631,223.304 12.585 C 223.351 12.538,228.879 12.500,235.590 12.500 L 247.790 12.500 247.897 13.375 C 247.956 13.856,248.073 14.737,248.159 15.333 C 248.566 18.179,248.864 20.344,249.250 23.250 C 249.481 24.992,249.779 27.167,249.912 28.083 C 250.045 29.000,250.200 30.125,250.256 30.583 C 250.312 31.042,250.459 32.129,250.583 33.000 C 250.708 33.871,250.855 34.958,250.911 35.417 C 250.967 35.875,251.126 37.037,251.264 38.000 C 251.748 41.372,251.825 41.932,252.081 43.917 C 252.223 45.017,252.450 46.667,252.585 47.583 C 252.720 48.500,253.019 50.675,253.249 52.417 C 253.479 54.158,253.779 56.333,253.914 57.250 C 254.050 58.167,254.277 59.817,254.419 60.917 C 254.674 62.891,254.731 63.310,255.239 66.917 C 255.380 67.925,255.686 70.175,255.917 71.917 C 256.147 73.658,256.447 75.833,256.582 76.750 C 256.717 77.667,256.944 79.317,257.086 80.417 C 257.228 81.517,257.414 82.904,257.500 83.500 C 257.586 84.096,257.773 85.446,257.916 86.500 C 258.058 87.554,258.248 88.875,258.337 89.436 C 258.427 89.996,258.500 90.653,258.500 90.894 C 258.500 91.944,258.783 91.192,258.978 89.625 C 259.095 88.685,259.263 87.486,259.352 86.959 C 259.442 86.432,259.586 85.420,259.673 84.709 C 259.760 83.998,259.945 82.629,260.083 81.667 C 260.222 80.704,260.404 79.354,260.489 78.667 C 260.573 77.979,260.723 76.929,260.820 76.333 C 260.918 75.737,261.188 73.825,261.421 72.083 C 261.654 70.342,261.922 68.430,262.017 67.835 C 262.113 67.240,262.260 66.190,262.345 65.501 C 262.429 64.813,262.612 63.462,262.750 62.500 C 262.888 61.538,263.078 60.112,263.172 59.333 C 263.265 58.554,263.376 57.804,263.417 57.667 C 263.458 57.529,263.568 56.779,263.662 56.000 C 263.755 55.221,263.945 53.796,264.083 52.833 C 264.222 51.871,264.407 50.496,264.495 49.778 C 264.583 49.061,264.727 48.048,264.816 47.528 C 264.970 46.619,265.039 46.135,265.584 42.083 C 265.852 40.091,266.252 37.216,266.500 35.500 C 266.586 34.904,266.774 33.517,266.917 32.417 C 267.061 31.317,267.287 29.704,267.421 28.833 C 267.554 27.962,267.779 26.350,267.920 25.250 C 268.176 23.254,268.263 22.635,268.744 19.333 C 269.061 17.159,269.667 12.743,269.667 12.603 C 269.667 12.547,284.892 12.500,303.500 12.500 L 337.333 12.500 337.333 24.583 L 337.333 36.667 326.583 36.667 L 315.833 36.667 315.833 51.417 L 315.833 66.167 326.583 66.167 L 337.333 66.167 337.333 78.250 L 337.333 90.333 326.583 90.333 L 315.833 90.333 315.833 105.333 L 315.833 120.333 326.583 120.333 L 337.333 120.333 337.333 132.250 L 337.333 144.167 314.583 144.167 L 291.833 144.167 291.813 85.458 C 291.802 53.169,291.731 27.050,291.654 27.417 C 291.495 28.177,291.117 30.478,290.750 32.917 C 290.612 33.833,290.429 34.996,290.343 35.500 C 290.098 36.942,289.707 39.354,289.249 42.250 C 289.017 43.717,288.716 45.592,288.580 46.417 C 288.444 47.242,288.144 49.117,287.913 50.583 C 287.682 52.050,287.411 53.700,287.311 54.250 C 287.211 54.800,287.066 55.700,286.989 56.250 C 286.912 56.800,286.729 57.962,286.583 58.833 C 286.437 59.704,286.255 60.867,286.178 61.417 C 286.101 61.967,285.956 62.867,285.855 63.417 C 285.755 63.967,285.557 65.167,285.417 66.083 C 285.116 68.048,284.930 69.210,284.590 71.250 C 284.452 72.075,284.226 73.500,284.086 74.417 C 283.946 75.333,283.761 76.496,283.674 77.000 C 283.413 78.514,283.023 80.928,282.585 83.750 C 282.357 85.217,282.057 87.092,281.918 87.917 C 281.778 88.742,281.475 90.617,281.245 92.083 C 281.014 93.550,280.713 95.425,280.576 96.250 C 280.243 98.252,280.056 99.423,279.748 101.417 C 279.606 102.333,279.379 103.758,279.243 104.583 C 278.489 109.141,278.296 110.343,278.173 111.250 C 278.099 111.800,277.956 112.700,277.855 113.250 C 277.755 113.800,277.557 115.000,277.417 115.917 C 277.112 117.909,276.924 119.079,276.589 121.083 C 276.451 121.908,276.148 123.783,275.916 125.250 C 275.684 126.717,275.382 128.592,275.247 129.417 C 275.111 130.242,274.811 132.117,274.581 133.583 C 274.351 135.050,274.055 136.887,273.923 137.667 C 273.791 138.446,273.517 140.149,273.314 141.452 C 273.111 142.755,272.890 143.909,272.823 144.017 C 272.732 144.164,269.181 144.234,258.696 144.297 L 244.691 144.381 244.589 143.732 C 244.533 143.375,244.416 142.671,244.328 142.167 C 244.241 141.662,244.054 140.537,243.914 139.667 C 243.774 138.796,243.549 137.483,243.415 136.750 C 243.168 135.400,242.598 132.014,242.334 130.333 C 241.961 127.959,240.981 122.156,240.820 121.366 C 240.720 120.880,240.575 120.055,240.497 119.533 C 240.292 118.159,239.702 114.632,239.417 113.083 C 239.282 112.350,238.982 110.587,238.750 109.167 C 238.518 107.746,238.220 105.983,238.089 105.250 C 237.957 104.517,237.813 103.654,237.769 103.333 C 237.646 102.451,237.027 98.757,236.750 97.250 C 236.454 95.640,235.853 92.098,235.661 90.833 C 235.585 90.329,235.287 88.567,235.000 86.917 C 234.713 85.267,234.406 83.429,234.318 82.833 C 234.231 82.237,234.125 81.637,234.083 81.500 C 234.042 81.362,233.936 80.762,233.848 80.167 C 233.637 78.733,233.056 75.250,232.750 73.583 C 232.616 72.850,232.315 71.087,232.081 69.667 C 231.578 66.608,231.201 64.379,231.107 63.917 C 231.069 63.733,231.030 64.111,231.019 64.757 C 230.863 74.248,225.054 86.254,217.750 92.180 C 217.154 92.663,216.667 93.148,216.667 93.259 C 216.667 93.437,219.982 104.784,220.585 106.667 C 220.799 107.336,221.102 108.349,221.908 111.083 C 222.043 111.542,222.343 112.554,222.575 113.333 C 222.806 114.112,223.106 115.125,223.241 115.583 C 223.711 117.179,224.622 120.235,225.177 122.083 C 225.521 123.228,225.873 124.424,226.157 125.417 C 226.235 125.692,226.561 126.779,226.880 127.833 C 227.200 128.887,227.500 129.900,227.547 130.083 C 227.595 130.267,227.895 131.279,228.214 132.333 C 228.533 133.387,228.834 134.400,228.883 134.583 C 228.931 134.767,229.579 136.942,230.321 139.416 C 231.063 141.891,231.634 144.011,231.590 144.126 C 231.526 144.292,229.069 144.327,219.713 144.293 L 207.917 144.250 207.726 143.500 C 207.621 143.087,207.383 142.188,207.197 141.500 C 206.384 138.492,205.672 135.810,204.898 132.833 C 204.576 131.596,204.058 129.646,203.748 128.500 C 203.212 126.520,202.496 123.812,201.832 121.250 C 201.509 120.008,201.125 118.560,200.440 116.000 C 200.206 115.129,199.906 114.004,199.773 113.500 C 199.640 112.996,199.340 111.871,199.107 111.000 C 198.873 110.129,198.561 108.967,198.414 108.417 C 197.976 106.782,196.807 102.305,196.618 101.542 C 196.419 100.735,196.290 100.702,194.436 100.993 C 193.875 101.082,192.873 101.238,192.209 101.342 L 191.001 101.530 190.959 122.890 L 190.917 144.250 184.083 144.303 C 180.325 144.332,170.034 144.304,161.216 144.241 L 145.181 144.126 145.088 143.355 C 145.036 142.930,144.885 141.833,144.751 140.917 C 144.617 140.000,144.316 137.825,144.083 136.083 C 143.850 134.342,143.543 132.092,143.400 131.083 C 143.258 130.075,142.978 128.087,142.779 126.667 L 142.417 124.083 133.157 124.040 L 123.897 123.997 123.685 125.790 C 123.569 126.776,123.403 127.960,123.316 128.419 C 123.230 128.879,123.091 129.817,123.009 130.503 C 122.926 131.189,122.741 132.575,122.599 133.583 C 122.456 134.592,122.304 135.679,122.260 136.000 C 121.920 138.507,121.632 140.584,121.499 141.500 C 121.413 142.096,121.294 142.940,121.236 143.375 L 121.129 144.167 97.898 144.167 L 74.667 144.167 74.651 112.958 C 74.637 86.052,74.604 81.922,74.407 83.000 C 73.823 86.211,73.080 90.560,72.836 92.200 C 72.758 92.722,72.613 93.547,72.514 94.033 C 72.328 94.942,71.754 98.350,71.503 100.033 C 71.425 100.555,71.281 101.380,71.183 101.866 C 71.086 102.352,70.816 103.912,70.583 105.333 C 70.351 106.754,70.051 108.517,69.916 109.250 C 69.673 110.577,69.109 113.918,68.834 115.667 C 68.754 116.171,68.454 117.933,68.167 119.583 C 67.879 121.233,67.582 122.996,67.506 123.500 C 67.429 124.004,67.285 124.867,67.184 125.417 C 66.997 126.444,66.707 128.133,65.915 132.833 C 65.768 133.704,65.538 135.054,65.403 135.833 C 65.107 137.553,64.930 138.593,64.583 140.667 C 64.438 141.537,64.236 142.681,64.136 143.208 L 63.954 144.167 57.477 144.167 C 53.915 144.167,51.000 144.110,51.000 144.042 C 51.000 143.893,50.430 140.504,50.068 138.500 C 49.928 137.721,49.744 136.671,49.660 136.167 C 49.417 134.703,49.011 132.360,48.751 130.917 C 48.619 130.183,48.318 128.421,48.083 127.000 C 47.699 124.673,47.464 123.323,46.998 120.750 C 46.915 120.292,46.730 119.204,46.586 118.333 C 46.443 117.462,46.211 116.112,46.071 115.333 C 45.932 114.554,45.746 113.504,45.660 113.000 C 45.573 112.496,45.422 111.633,45.324 111.083 C 45.226 110.533,45.082 109.671,45.003 109.167 C 44.924 108.662,44.621 106.900,44.330 105.250 C 44.039 103.600,43.742 101.875,43.669 101.417 C 43.597 100.958,43.299 99.233,43.008 97.583 C 42.716 95.933,42.407 94.096,42.320 93.500 C 42.234 92.904,42.124 92.312,42.077 92.184 C 42.030 92.056,41.924 91.493,41.840 90.934 C 41.532 88.867,40.800 84.592,40.438 82.750 C 40.401 82.567,40.363 96.311,40.353 113.293 L 40.333 144.169 28.208 144.126 L 16.083 144.083 16.041 78.500 C 16.017 42.429,16.034 12.823,16.077 12.708 C 16.140 12.544,19.374 12.500,31.479 12.500 L 46.802 12.500 46.912 13.375 M365.333 66.417 L 365.333 120.333 375.583 120.333 L 385.833 120.333 385.833 132.250 L 385.833 144.167 363.583 144.167 L 341.333 144.167 341.333 78.333 L 341.333 12.500 353.333 12.500 L 365.333 12.500 365.333 66.417 M191.000 57.279 L 191.000 78.379 191.878 78.276 C 202.164 77.067,208.602 65.296,206.446 51.642 C 205.009 42.541,199.766 36.915,192.125 36.274 L 191.000 36.179 191.000 57.279 M133.186 48.218 C 133.175 48.567,133.096 49.354,133.010 49.968 C 132.855 51.079,132.549 53.633,132.079 57.750 C 131.943 58.942,131.759 60.517,131.670 61.250 C 131.299 64.319,130.808 68.542,130.323 72.833 C 130.225 73.704,130.034 75.317,129.900 76.417 C 129.574 79.074,129.394 80.617,129.083 83.417 C 128.940 84.700,128.717 86.612,128.587 87.667 C 128.457 88.721,128.273 90.258,128.178 91.083 C 127.986 92.750,127.619 95.876,127.257 98.917 C 127.127 100.017,126.977 101.348,126.925 101.875 L 126.830 102.833 133.434 102.833 L 140.037 102.833 139.922 102.218 C 139.858 101.880,139.740 100.965,139.660 100.186 C 139.580 99.407,139.437 98.240,139.344 97.593 C 139.250 96.946,139.056 95.367,138.913 94.083 C 138.769 92.800,138.584 91.225,138.501 90.583 C 138.075 87.295,137.693 84.167,137.249 80.333 C 137.106 79.096,136.913 77.554,136.821 76.907 C 136.728 76.260,136.584 75.098,136.499 74.324 C 136.414 73.550,136.227 71.979,136.082 70.833 C 135.938 69.688,135.748 68.042,135.661 67.177 C 135.574 66.312,135.464 65.482,135.417 65.333 C 135.369 65.184,135.259 64.355,135.172 63.490 C 135.085 62.624,134.895 60.979,134.751 59.833 C 134.607 58.688,134.419 57.117,134.334 56.343 C 134.250 55.569,134.106 54.407,134.015 53.760 C 133.924 53.113,133.759 51.796,133.649 50.833 C 133.538 49.871,133.393 48.746,133.327 48.333 L 133.206 47.583 133.186 48.218 " stroke="none" fill="#eb242a" fill-rule="evenodd"></path><path id="path1" d="M16.167 78.333 L 16.167 144.000 28.167 144.000 L 40.167 144.000 40.182 112.625 C 40.197 79.903,40.198 79.853,40.819 84.000 C 40.909 84.596,41.101 85.758,41.247 86.583 C 41.393 87.408,41.579 88.496,41.660 89.000 C 41.740 89.504,41.928 90.592,42.077 91.417 C 42.226 92.242,42.494 93.817,42.674 94.917 C 42.853 96.017,43.076 97.292,43.169 97.750 C 43.382 98.804,44.136 103.237,44.345 104.667 C 44.432 105.263,44.542 105.855,44.589 105.983 C 44.636 106.111,44.743 106.673,44.826 107.233 C 45.058 108.788,45.642 112.260,45.922 113.750 C 46.060 114.483,46.359 116.171,46.586 117.500 C 46.812 118.829,47.114 120.592,47.257 121.417 C 47.399 122.242,47.585 123.329,47.670 123.833 C 47.901 125.193,48.312 127.562,48.596 129.167 C 49.249 132.853,49.532 134.490,49.664 135.333 C 49.743 135.837,50.046 137.600,50.338 139.250 C 50.630 140.900,50.917 142.625,50.976 143.083 L 51.083 143.917 57.495 143.917 L 63.907 143.917 64.027 143.167 C 64.289 141.522,64.541 140.023,64.755 138.833 C 64.879 138.146,65.104 136.833,65.254 135.917 C 65.582 133.916,65.734 133.036,66.072 131.167 C 66.332 129.729,66.904 126.337,67.166 124.667 C 67.246 124.162,67.546 122.400,67.833 120.750 C 68.121 119.100,68.427 117.263,68.513 116.667 C 68.600 116.071,68.711 115.473,68.761 115.337 C 68.811 115.202,68.918 114.602,69.000 114.004 C 69.081 113.406,69.382 111.567,69.668 109.917 C 69.954 108.267,70.255 106.504,70.338 106.000 C 70.420 105.496,70.607 104.408,70.753 103.583 C 70.900 102.758,71.086 101.594,71.167 100.996 C 71.248 100.398,71.356 99.798,71.405 99.663 C 71.455 99.527,71.568 98.929,71.656 98.333 C 71.744 97.737,72.050 95.900,72.336 94.250 C 72.621 92.600,72.920 90.837,72.999 90.333 C 73.079 89.829,73.379 88.067,73.667 86.417 C 73.954 84.767,74.261 82.934,74.348 82.343 C 74.436 81.753,74.543 81.234,74.587 81.191 C 74.631 81.147,74.667 95.261,74.667 112.556 L 74.667 144.000 97.814 144.000 L 120.962 144.000 121.144 142.958 C 121.244 142.385,121.442 141.017,121.583 139.917 C 121.724 138.817,121.950 137.167,122.086 136.250 C 122.483 133.567,123.021 129.680,123.175 128.372 C 123.254 127.705,123.397 126.730,123.493 126.205 C 123.589 125.680,123.686 124.950,123.709 124.583 L 123.750 123.917 133.121 123.874 L 142.493 123.831 142.570 124.207 C 142.612 124.414,142.733 125.221,142.837 126.000 C 142.942 126.779,143.101 127.904,143.192 128.499 C 143.283 129.094,143.426 130.144,143.511 130.832 C 143.596 131.520,143.779 132.871,143.917 133.833 C 144.056 134.796,144.210 135.958,144.261 136.417 C 144.312 136.875,144.456 137.925,144.581 138.750 C 144.706 139.575,144.894 140.887,144.999 141.667 C 145.104 142.446,145.225 143.277,145.269 143.514 L 145.348 143.945 157.216 144.056 C 163.743 144.117,173.977 144.166,179.958 144.167 L 190.832 144.167 190.874 122.799 L 190.917 101.432 192.167 101.229 C 196.750 100.484,196.513 100.453,196.826 101.833 C 196.919 102.246,197.177 103.258,197.399 104.083 C 198.067 106.565,198.637 108.696,198.893 109.667 C 199.192 110.799,199.913 113.499,200.362 115.167 C 200.709 116.456,200.830 116.911,201.687 120.167 C 202.146 121.909,202.331 122.599,203.112 125.500 C 203.248 126.004,203.609 127.392,203.914 128.583 C 204.219 129.775,204.660 131.462,204.893 132.333 C 205.127 133.204,205.427 134.329,205.560 134.833 C 205.973 136.396,206.725 139.208,207.678 142.750 C 207.851 143.392,207.994 143.973,207.996 144.042 C 208.003 144.266,231.500 144.194,231.500 143.970 C 231.500 143.862,231.427 143.543,231.337 143.262 C 231.192 142.805,230.861 141.694,230.092 139.083 C 229.957 138.625,229.657 137.612,229.425 136.833 C 229.194 136.054,228.894 135.042,228.759 134.583 C 228.423 133.443,227.724 131.094,227.420 130.083 C 227.004 128.700,226.344 126.473,226.061 125.500 C 225.914 124.996,225.732 124.396,225.656 124.167 C 225.488 123.659,224.569 120.546,224.451 120.083 C 224.405 119.900,224.105 118.888,223.786 117.833 C 223.467 116.779,223.166 115.767,223.117 115.583 C 223.068 115.400,221.891 111.462,220.503 106.833 C 219.114 102.204,217.913 98.192,217.834 97.917 C 217.755 97.642,217.567 97.004,217.417 96.500 C 217.134 95.552,217.000 95.097,216.635 93.857 L 216.422 93.131 217.252 92.443 C 221.622 88.823,224.926 84.291,227.838 77.917 C 229.586 74.093,230.611 69.576,230.789 64.917 C 230.856 63.165,230.941 62.306,231.011 62.667 C 231.155 63.410,232.139 69.123,232.331 70.333 C 232.411 70.837,232.824 73.275,233.249 75.750 C 233.674 78.225,234.084 80.662,234.161 81.167 C 234.337 82.329,234.935 85.843,235.252 87.583 C 235.554 89.235,236.153 92.772,236.339 94.000 C 236.416 94.504,236.713 96.267,236.999 97.917 C 237.285 99.567,237.586 101.406,237.667 102.004 C 237.748 102.602,237.856 103.202,237.905 103.337 C 237.955 103.473,238.067 104.071,238.154 104.667 C 238.361 106.093,238.938 109.576,239.243 111.250 C 239.377 111.983,239.516 112.808,239.552 113.083 C 239.618 113.594,240.147 116.687,240.577 119.083 C 240.709 119.817,240.853 120.679,240.898 121.000 C 241.021 121.883,241.639 125.577,241.917 127.083 C 242.213 128.693,242.814 132.236,243.005 133.500 C 243.082 134.004,243.379 135.767,243.667 137.417 C 243.954 139.067,244.253 140.842,244.330 141.362 C 244.408 141.882,244.558 142.726,244.664 143.237 L 244.857 144.167 254.220 144.166 C 259.370 144.166,265.662 144.117,268.202 144.056 L 272.821 143.947 272.916 143.182 C 272.969 142.761,273.084 142.004,273.172 141.500 C 273.260 140.996,273.446 139.833,273.586 138.917 C 273.726 138.000,273.949 136.612,274.083 135.833 C 274.217 135.054,274.442 133.667,274.583 132.750 C 274.886 130.774,275.073 129.608,275.410 127.583 C 275.548 126.758,275.774 125.333,275.914 124.417 C 276.054 123.500,276.238 122.337,276.324 121.833 C 276.556 120.469,276.945 118.075,277.420 115.083 C 277.653 113.617,277.955 111.742,278.091 110.917 C 278.227 110.092,278.526 108.217,278.756 106.750 C 278.986 105.283,279.287 103.408,279.424 102.583 C 279.765 100.529,279.951 99.370,280.251 97.417 C 280.391 96.500,280.619 95.075,280.757 94.250 C 281.094 92.226,281.281 91.059,281.584 89.083 C 281.725 88.167,281.949 86.779,282.083 86.000 C 282.217 85.221,282.442 83.833,282.583 82.917 C 282.908 80.798,283.129 79.427,283.417 77.750 C 283.543 77.017,283.767 75.629,283.914 74.667 C 284.340 71.883,284.477 71.014,284.744 69.417 C 284.882 68.592,285.185 66.717,285.417 65.250 C 285.650 63.783,285.951 61.908,286.087 61.083 C 286.223 60.258,286.523 58.383,286.754 56.917 C 286.985 55.450,287.256 53.800,287.356 53.250 C 287.456 52.700,287.601 51.800,287.678 51.250 C 287.755 50.700,287.937 49.538,288.083 48.667 C 288.229 47.796,288.412 46.633,288.489 46.083 C 288.566 45.533,288.711 44.633,288.811 44.083 C 288.912 43.533,289.109 42.333,289.250 41.417 C 289.551 39.452,289.737 38.290,290.077 36.250 C 290.214 35.425,290.442 34.000,290.583 33.083 C 290.912 30.938,291.142 29.558,291.433 27.983 C 291.561 27.287,291.668 26.462,291.669 26.150 C 291.671 25.723,291.712 25.645,291.833 25.833 C 291.937 25.994,291.996 47.265,291.997 85.042 L 292.000 144.000 314.667 144.000 L 337.333 144.000 337.333 132.251 L 337.333 120.502 326.542 120.460 L 315.750 120.417 315.707 105.375 L 315.665 90.333 326.499 90.333 L 337.333 90.333 337.333 78.335 L 337.333 66.336 326.542 66.293 L 315.750 66.250 315.750 51.417 L 315.750 36.583 326.542 36.540 L 337.333 36.498 337.333 24.582 L 337.333 12.667 303.578 12.667 C 276.717 12.667,269.811 12.709,269.762 12.875 C 269.729 12.990,269.576 14.096,269.421 15.333 C 269.267 16.571,269.074 18.033,268.993 18.583 C 268.525 21.770,268.140 24.540,267.652 28.250 C 267.555 28.983,267.404 30.009,267.316 30.528 C 267.227 31.048,267.083 32.061,266.995 32.778 C 266.907 33.496,266.722 34.871,266.583 35.833 C 266.445 36.796,266.255 38.221,266.162 39.000 C 266.068 39.779,265.958 40.529,265.917 40.667 C 265.876 40.804,265.765 41.554,265.672 42.333 C 265.578 43.112,265.388 44.538,265.250 45.500 C 265.112 46.462,264.929 47.813,264.845 48.500 C 264.760 49.188,264.610 50.237,264.512 50.833 C 264.270 52.296,263.670 56.606,263.480 58.250 C 263.395 58.983,263.292 59.696,263.250 59.833 C 263.209 59.971,263.099 60.721,263.005 61.500 C 262.912 62.279,262.722 63.704,262.583 64.667 C 262.445 65.629,262.263 66.980,262.178 67.668 C 262.093 68.356,261.947 69.406,261.853 70.001 C 261.689 71.047,261.350 73.488,260.985 76.250 C 260.888 76.983,260.706 78.258,260.581 79.083 C 260.456 79.908,260.306 80.958,260.248 81.417 C 260.190 81.875,260.035 83.000,259.904 83.917 C 259.773 84.833,259.594 86.165,259.507 86.876 C 259.419 87.586,259.274 88.599,259.185 89.126 C 259.095 89.652,258.972 90.552,258.911 91.125 C 258.761 92.538,258.550 92.574,258.418 91.210 C 258.358 90.590,258.236 89.652,258.147 89.126 C 258.058 88.599,257.914 87.586,257.827 86.876 C 257.740 86.165,257.561 84.833,257.429 83.917 C 257.298 83.000,257.145 81.875,257.089 81.417 C 257.033 80.958,256.874 79.796,256.736 78.833 C 256.252 75.461,256.175 74.901,255.919 72.917 C 255.777 71.817,255.550 70.167,255.415 69.250 C 255.279 68.333,255.053 66.683,254.912 65.583 C 254.772 64.483,254.586 63.096,254.500 62.500 C 254.414 61.904,254.226 60.554,254.083 59.500 C 253.940 58.446,253.753 57.096,253.667 56.500 C 253.581 55.904,253.394 54.517,253.252 53.417 C 253.110 52.317,252.886 50.667,252.753 49.750 C 252.490 47.942,252.309 46.629,251.913 43.667 C 251.772 42.612,251.547 41.000,251.413 40.083 C 251.279 39.167,250.980 36.992,250.749 35.250 C 250.296 31.836,249.916 29.059,249.667 27.333 C 249.581 26.738,249.394 25.350,249.252 24.250 C 249.110 23.150,248.883 21.500,248.748 20.583 C 248.613 19.667,248.387 18.017,248.246 16.917 C 248.105 15.817,247.905 14.410,247.801 13.792 L 247.613 12.667 235.534 12.667 L 223.454 12.667 223.548 13.708 C 223.634 14.664,223.891 16.727,224.591 22.083 C 224.935 24.721,225.094 25.978,225.411 28.583 C 225.556 29.775,225.756 31.373,225.856 32.134 C 226.077 33.825,226.018 33.914,225.419 32.793 C 223.770 29.709,219.833 24.698,217.399 22.586 C 216.767 22.037,216.213 21.546,216.167 21.493 C 214.200 19.259,207.307 15.555,202.583 14.194 C 197.657 12.775,197.841 12.788,181.542 12.712 L 167.000 12.644 166.995 70.697 C 166.992 102.871,166.926 128.639,166.848 128.500 C 166.769 128.362,166.617 127.688,166.508 127.000 C 166.400 126.313,166.209 125.112,166.083 124.333 C 165.958 123.554,165.779 122.392,165.686 121.750 C 165.496 120.439,165.101 117.830,164.753 115.583 C 164.625 114.758,164.442 113.558,164.347 112.917 C 164.252 112.275,164.059 111.000,163.919 110.083 C 163.778 109.167,163.552 107.667,163.415 106.750 C 163.278 105.833,163.052 104.333,162.913 103.417 C 162.773 102.500,162.580 101.225,162.483 100.583 C 162.386 99.942,162.197 98.704,162.062 97.833 C 161.656 95.207,161.524 94.333,161.249 92.417 C 161.104 91.408,160.880 89.946,160.751 89.167 C 160.538 87.879,160.310 86.383,159.823 83.083 C 159.728 82.442,159.546 81.242,159.419 80.417 C 159.291 79.592,159.109 78.392,159.014 77.750 C 158.789 76.233,158.400 73.676,158.077 71.583 C 157.611 68.561,157.516 67.935,157.249 66.083 C 157.104 65.075,156.881 63.612,156.753 62.833 C 156.626 62.054,156.445 60.892,156.351 60.250 C 156.094 58.490,155.685 55.764,155.425 54.083 C 155.297 53.258,155.114 52.058,155.017 51.417 C 154.613 48.744,154.320 46.825,154.088 45.333 C 153.953 44.462,153.726 42.962,153.585 42.000 C 153.176 39.215,152.994 38.014,152.750 36.500 C 152.516 35.051,152.379 34.132,151.913 30.917 C 151.767 29.908,151.544 28.446,151.418 27.667 C 151.292 26.887,151.110 25.725,151.014 25.083 C 150.919 24.442,150.726 23.167,150.585 22.250 C 150.445 21.333,150.218 19.833,150.081 18.917 C 149.811 17.104,149.418 14.500,149.246 13.374 L 149.137 12.665 133.204 12.707 L 117.270 12.750 117.052 14.167 C 116.932 14.946,116.724 16.296,116.588 17.167 C 116.163 19.905,115.841 22.040,115.658 23.333 C 115.561 24.021,115.377 25.221,115.248 26.000 C 115.120 26.779,114.897 28.242,114.753 29.250 C 114.608 30.258,114.422 31.496,114.339 32.000 C 114.255 32.504,114.071 33.704,113.929 34.667 C 113.786 35.629,113.555 37.167,113.415 38.083 C 113.274 39.000,113.082 40.275,112.986 40.917 C 112.891 41.558,112.708 42.758,112.579 43.583 C 112.450 44.408,112.228 45.871,112.086 46.833 C 111.643 49.843,111.486 50.872,111.247 52.333 C 111.119 53.112,110.896 54.575,110.751 55.583 C 110.476 57.499,110.344 58.374,109.938 61.000 C 109.803 61.871,109.614 63.108,109.517 63.750 C 109.420 64.392,109.226 65.667,109.085 66.583 C 108.945 67.500,108.718 69.000,108.581 69.917 C 108.445 70.833,108.219 72.333,108.079 73.250 C 107.940 74.167,107.748 75.442,107.652 76.083 C 107.557 76.725,107.375 77.887,107.249 78.667 C 107.122 79.446,106.899 80.908,106.753 81.917 C 106.276 85.214,106.148 86.064,105.913 87.500 C 105.786 88.279,105.563 89.742,105.418 90.750 C 105.273 91.758,105.085 93.033,105.000 93.583 C 104.915 94.133,104.735 95.296,104.600 96.167 C 104.466 97.037,104.277 98.275,104.181 98.917 C 103.956 100.425,103.565 102.999,103.258 105.000 C 103.124 105.871,102.937 107.108,102.844 107.750 C 102.598 109.436,102.206 112.010,101.917 113.833 C 101.547 116.161,101.209 118.407,101.000 119.917 C 100.899 120.650,100.711 121.888,100.583 122.667 C 100.455 123.446,100.232 124.871,100.089 125.833 C 98.787 134.569,98.922 140.430,98.875 72.875 L 98.833 12.667 83.624 12.667 L 68.415 12.667 67.945 15.625 C 67.687 17.252,67.376 19.146,67.253 19.833 C 67.131 20.521,66.909 21.871,66.760 22.833 C 66.611 23.796,66.420 24.996,66.336 25.500 C 66.033 27.312,65.659 29.630,65.246 32.250 C 65.015 33.717,64.716 35.554,64.582 36.333 C 64.448 37.112,64.147 38.950,63.914 40.417 C 63.681 41.883,63.378 43.758,63.242 44.583 C 62.446 49.405,62.296 50.344,62.173 51.250 C 62.099 51.800,61.956 52.700,61.856 53.250 C 61.756 53.800,61.484 55.450,61.252 56.917 C 61.020 58.383,60.718 60.258,60.581 61.083 C 60.444 61.908,60.177 63.521,59.987 64.667 C 59.797 65.813,59.581 67.200,59.506 67.750 C 59.432 68.300,59.289 69.200,59.188 69.750 C 59.088 70.300,58.812 71.987,58.575 73.500 C 58.338 75.012,58.037 76.820,57.905 77.517 C 57.774 78.213,57.666 79.001,57.664 79.267 C 57.657 80.543,57.267 80.291,57.090 78.896 C 57.034 78.449,56.879 77.446,56.748 76.667 C 56.616 75.887,56.320 74.012,56.089 72.500 C 55.858 70.987,55.557 69.075,55.420 68.250 C 55.284 67.425,55.057 66.000,54.917 65.083 C 54.663 63.418,54.567 62.808,54.093 59.833 C 53.954 58.962,53.725 57.500,53.584 56.583 C 53.290 54.671,53.108 53.530,52.758 51.417 C 52.622 50.592,52.317 48.642,52.082 47.083 C 51.847 45.525,51.548 43.612,51.418 42.833 C 51.287 42.054,51.106 40.929,51.015 40.333 C 50.712 38.352,50.332 35.934,50.084 34.417 C 49.949 33.592,49.724 32.167,49.584 31.250 C 49.266 29.168,49.051 27.811,48.752 26.000 C 48.623 25.221,48.323 23.308,48.085 21.750 C 47.846 20.192,47.544 18.279,47.413 17.500 C 47.009 15.103,46.667 12.948,46.667 12.804 C 46.667 12.728,39.804 12.667,31.417 12.667 L 16.167 12.667 16.167 78.333 M341.500 78.333 L 341.500 144.000 363.583 144.000 L 385.667 144.000 385.667 132.250 L 385.667 120.500 375.500 120.500 L 365.333 120.500 365.333 66.583 L 365.333 12.667 353.417 12.667 L 341.500 12.667 341.500 78.333 M194.045 36.432 C 201.323 37.983,205.631 43.647,206.748 53.131 C 208.252 65.912,201.940 77.170,192.667 78.245 C 192.162 78.303,191.544 78.390,191.292 78.439 L 190.833 78.526 190.833 57.374 C 190.833 45.741,190.883 36.173,190.943 36.113 C 191.085 35.970,192.619 36.128,194.045 36.432 M133.589 49.234 C 133.646 49.884,133.761 50.829,133.845 51.333 C 133.928 51.837,134.070 52.925,134.159 53.750 C 134.249 54.575,134.440 56.188,134.584 57.333 C 134.729 58.479,134.918 60.124,135.005 60.990 C 135.093 61.855,135.203 62.684,135.250 62.833 C 135.297 62.982,135.407 63.812,135.495 64.677 C 135.582 65.542,135.771 67.188,135.916 68.333 C 136.060 69.479,136.248 71.050,136.332 71.824 C 136.417 72.598,136.560 73.760,136.651 74.407 C 136.826 75.651,136.992 77.004,137.419 80.667 C 137.564 81.904,137.787 83.742,137.916 84.750 C 138.044 85.758,138.225 87.221,138.318 88.000 C 138.808 92.120,139.479 97.624,139.669 99.083 C 139.753 99.725,139.866 100.700,139.919 101.250 C 139.973 101.800,140.053 102.419,140.095 102.625 L 140.173 103.000 133.420 103.000 C 129.484 103.000,126.667 102.937,126.667 102.849 C 126.667 102.765,126.779 101.772,126.916 100.640 C 127.229 98.059,127.582 95.070,127.917 92.167 C 128.354 88.379,128.477 87.329,128.741 85.167 C 129.005 82.990,129.384 79.695,129.679 77.000 C 129.774 76.129,129.929 74.867,130.023 74.195 C 130.118 73.524,130.261 72.324,130.342 71.529 C 130.423 70.734,130.608 69.108,130.752 67.917 C 130.896 66.725,131.078 65.112,131.158 64.333 C 131.237 63.554,131.383 62.317,131.483 61.583 C 131.648 60.375,131.819 58.906,132.349 54.167 C 132.446 53.296,132.633 51.849,132.763 50.952 C 132.893 50.054,133.001 49.004,133.002 48.618 C 133.004 48.232,133.055 47.730,133.116 47.501 L 133.227 47.086 133.356 47.569 C 133.427 47.834,133.532 48.583,133.589 49.234 " stroke="none" fill="#fcfcfc" fill-rule="evenodd"></path><path id="path2" d="M341.416 78.333 C 341.416 114.587,341.435 129.419,341.458 111.292 C 341.482 93.165,341.482 63.502,341.458 45.375 C 341.435 27.248,341.416 42.079,341.416 78.333 M98.885 72.667 C 98.868 105.712,98.906 132.600,98.969 132.417 C 99.032 132.233,99.046 105.196,99.000 72.333 L 98.916 12.583 98.885 72.667 M166.915 62.667 C 166.915 80.588,166.934 87.919,166.958 78.958 C 166.982 69.998,166.982 55.335,166.958 46.375 C 166.934 37.415,166.915 44.746,166.915 62.667 M190.914 57.250 C 190.914 68.892,190.934 73.630,190.958 67.779 C 190.983 61.928,190.983 52.403,190.958 46.612 C 190.934 40.821,190.914 45.608,190.914 57.250 M206.875 56.917 C 206.877 57.283,206.911 57.414,206.951 57.206 C 206.991 56.999,206.990 56.699,206.948 56.540 C 206.906 56.380,206.874 56.550,206.875 56.917 M230.833 64.167 C 230.833 64.839,230.866 65.356,230.907 65.316 C 231.029 65.193,231.063 63.174,230.944 63.055 C 230.883 62.994,230.833 63.494,230.833 64.167 M321.220 66.292 C 324.229 66.317,329.104 66.317,332.054 66.292 C 335.003 66.266,332.542 66.245,326.583 66.245 C 320.625 66.245,318.212 66.266,321.220 66.292 M40.213 112.833 L 40.248 144.083 40.332 113.083 C 40.379 96.033,40.363 81.971,40.297 81.833 C 40.231 81.696,40.193 95.646,40.213 112.833 M190.914 122.750 C 190.914 134.483,190.934 139.259,190.958 133.362 C 190.983 127.465,190.983 117.865,190.958 112.029 C 190.934 106.192,190.914 111.017,190.914 122.750 M321.220 120.458 C 324.229 120.484,329.104 120.484,332.054 120.458 C 335.003 120.433,332.542 120.412,326.583 120.412 C 320.625 120.412,318.212 120.433,321.220 120.458 M375.499 120.458 L 385.664 120.503 385.709 132.293 L 385.753 144.083 385.752 132.250 L 385.750 120.417 375.542 120.415 L 365.333 120.413 375.499 120.458 M128.542 123.958 C 131.085 123.984,135.248 123.984,137.792 123.958 C 140.335 123.932,138.254 123.911,133.167 123.911 C 128.079 123.911,125.998 123.932,128.542 123.958 M247.042 144.291 C 248.302 144.320,250.365 144.320,251.625 144.291 C 252.885 144.263,251.854 144.240,249.333 144.240 C 246.813 144.240,245.781 144.263,247.042 144.291 " stroke="none" fill="#f4967c" fill-rule="evenodd"></path><path id="path3" d="M166.911 21.333 C 166.911 26.238,166.932 28.244,166.958 25.792 C 166.984 23.340,166.984 19.327,166.958 16.875 C 166.932 14.423,166.911 16.429,166.911 21.333 M192.875 12.621 C 193.219 12.657,193.781 12.657,194.125 12.621 C 194.469 12.585,194.188 12.556,193.500 12.556 C 192.813 12.556,192.531 12.585,192.875 12.621 M16.082 78.333 C 16.082 114.496,16.102 129.290,16.125 111.208 C 16.148 93.127,16.148 63.540,16.125 45.458 C 16.102 27.377,16.082 42.171,16.082 78.333 M218.417 23.500 C 218.961 24.050,219.444 24.500,219.490 24.500 C 219.535 24.500,219.128 24.050,218.583 23.500 C 218.039 22.950,217.556 22.500,217.510 22.500 C 217.465 22.500,217.872 22.950,218.417 23.500 M132.705 51.833 C 132.705 52.154,132.740 52.285,132.782 52.125 C 132.823 51.965,132.823 51.702,132.782 51.542 C 132.740 51.381,132.705 51.512,132.705 51.833 M133.872 52.833 C 133.872 53.154,133.906 53.285,133.948 53.125 C 133.990 52.965,133.990 52.702,133.948 52.542 C 133.906 52.381,133.872 52.512,133.872 52.833 M230.875 65.917 C 230.877 66.283,230.911 66.414,230.951 66.206 C 230.991 65.999,230.990 65.699,230.948 65.540 C 230.906 65.380,230.874 65.550,230.875 65.917 M130.039 74.667 C 130.039 74.987,130.073 75.119,130.115 74.958 C 130.157 74.798,130.157 74.535,130.115 74.375 C 130.073 74.215,130.039 74.346,130.039 74.667 M130.031 102.958 C 131.835 102.985,134.835 102.985,136.697 102.958 C 138.560 102.931,137.083 102.909,133.417 102.909 C 129.750 102.909,128.226 102.931,130.031 102.958 M176.000 144.167 L 161.083 144.253 175.948 144.293 C 185.723 144.320,190.849 144.276,190.917 144.167 C 190.973 144.075,190.996 144.018,190.968 144.040 C 190.940 144.062,184.204 144.119,176.000 144.167 M207.976 144.209 C 208.045 144.279,213.386 144.316,219.843 144.293 L 231.583 144.250 219.717 144.167 C 213.190 144.121,207.907 144.140,207.976 144.209 M256.947 144.291 C 258.706 144.318,261.631 144.318,263.447 144.291 C 265.264 144.265,263.825 144.242,260.250 144.242 C 256.675 144.242,255.189 144.264,256.947 144.291 " stroke="none" fill="#f06754" fill-rule="evenodd"></path><path id="path4" d="M23.804 12.625 C 28.051 12.650,34.951 12.650,39.138 12.625 C 43.324 12.600,39.850 12.580,31.417 12.580 C 22.983 12.580,19.558 12.600,23.804 12.625 M75.971 12.625 C 80.217 12.650,87.117 12.650,91.304 12.625 C 95.491 12.600,92.017 12.580,83.583 12.580 C 75.150 12.580,71.724 12.600,75.971 12.625 M117.276 12.625 C 117.206 12.738,128.413 12.737,143.500 12.623 C 146.662 12.599,142.073 12.561,133.302 12.539 C 124.530 12.518,117.318 12.556,117.276 12.625 M173.292 12.625 C 176.798 12.650,182.535 12.650,186.042 12.625 C 189.548 12.600,186.679 12.579,179.667 12.579 C 172.654 12.579,169.785 12.600,173.292 12.625 M223.396 12.745 C 223.344 12.879,223.341 13.085,223.388 13.203 C 223.435 13.320,223.480 13.248,223.487 13.043 L 223.500 12.669 235.625 12.625 L 247.750 12.581 235.620 12.541 C 225.087 12.505,223.477 12.532,223.396 12.745 M269.776 12.625 C 269.706 12.738,292.855 12.737,325.250 12.624 C 331.942 12.600,322.215 12.563,303.635 12.541 C 285.055 12.518,269.818 12.556,269.776 12.625 M347.471 12.625 C 350.800 12.650,356.200 12.650,359.471 12.625 C 362.741 12.600,360.017 12.579,353.417 12.579 C 346.817 12.579,344.141 12.600,347.471 12.625 M194.377 12.786 C 194.631 12.825,195.006 12.824,195.211 12.784 C 195.416 12.744,195.208 12.713,194.750 12.714 C 194.292 12.716,194.124 12.748,194.377 12.786 M291.733 26.000 C 291.786 26.229,291.830 52.910,291.831 85.292 L 291.833 144.167 314.625 144.126 L 337.417 144.085 314.708 144.042 L 292.000 143.999 291.997 85.041 C 291.996 43.386,291.942 26.010,291.816 25.833 C 291.676 25.637,291.658 25.673,291.733 26.000 M315.743 36.708 C 315.700 36.823,315.684 43.517,315.708 51.583 L 315.752 66.250 315.793 51.460 L 315.833 36.669 326.625 36.625 L 337.417 36.581 326.620 36.540 C 318.106 36.509,315.806 36.544,315.743 36.708 M206.883 55.500 C 206.883 56.004,206.915 56.210,206.953 55.958 C 206.991 55.706,206.991 55.294,206.953 55.042 C 206.915 54.790,206.883 54.996,206.883 55.500 M206.881 58.250 C 206.882 58.708,206.915 58.876,206.953 58.623 C 206.991 58.369,206.990 57.994,206.951 57.789 C 206.911 57.584,206.880 57.792,206.881 58.250 M135.372 64.333 C 135.372 64.654,135.406 64.785,135.448 64.625 C 135.490 64.465,135.490 64.202,135.448 64.042 C 135.406 63.881,135.372 64.012,135.372 64.333 M200.742 74.042 L 200.083 74.750 200.792 74.091 C 201.181 73.729,201.500 73.410,201.500 73.383 C 201.500 73.257,201.355 73.383,200.742 74.042 M129.872 75.167 C 129.872 75.487,129.906 75.619,129.948 75.458 C 129.990 75.298,129.990 75.035,129.948 74.875 C 129.906 74.715,129.872 74.846,129.872 75.167 M136.705 75.333 C 136.705 75.654,136.740 75.785,136.782 75.625 C 136.823 75.465,136.823 75.202,136.782 75.042 C 136.740 74.881,136.705 75.012,136.705 75.333 M128.539 86.667 C 128.539 86.987,128.573 87.119,128.615 86.958 C 128.657 86.798,128.657 86.535,128.615 86.375 C 128.573 86.215,128.539 86.346,128.539 86.667 M315.747 105.333 C 315.747 113.629,315.767 117.023,315.792 112.875 C 315.816 108.727,315.816 101.940,315.792 97.792 C 315.767 93.644,315.747 97.037,315.747 105.333 M166.914 111.917 C 166.914 121.175,166.934 124.987,166.958 120.388 C 166.983 115.788,166.983 108.213,166.958 103.554 C 166.934 98.895,166.914 102.658,166.914 111.917 M145.220 143.750 C 145.254 144.078,145.378 144.083,153.211 144.086 L 161.167 144.088 153.262 144.043 C 145.917 144.000,145.351 143.976,145.271 143.707 C 145.206 143.484,145.194 143.494,145.220 143.750 M57.500 144.000 L 51.083 144.089 57.448 144.128 C 61.554 144.153,63.850 144.108,63.917 144.000 C 63.973 143.908,63.996 143.851,63.968 143.872 C 63.940 143.893,61.029 143.951,57.500 144.000 M22.125 144.125 C 25.448 144.150,30.885 144.150,34.208 144.125 C 37.531 144.100,34.813 144.079,28.167 144.079 C 21.521 144.079,18.802 144.100,22.125 144.125 M86.208 144.125 C 92.602 144.149,103.065 144.149,109.458 144.125 C 115.852 144.101,110.621 144.081,97.833 144.081 C 85.046 144.081,79.815 144.101,86.208 144.125 M268.217 144.124 C 269.116 144.154,270.541 144.154,271.384 144.124 C 272.227 144.094,271.492 144.069,269.750 144.069 C 268.008 144.070,267.318 144.094,268.217 144.124 M352.555 144.125 C 358.681 144.149,368.656 144.149,374.721 144.125 C 380.787 144.101,375.775 144.081,363.583 144.081 C 351.392 144.081,346.429 144.101,352.555 144.125 " stroke="none" fill="#fcccb6" fill-rule="evenodd"></path></g></svg>